HIERARCHY
ROOT joint_Root
{
	OFFSET 0.0 0.0 0.0
	CHANNELS 6 Xposition Yposition Zposition Zrotation Xrotation Yrotation 
	JOINT Hips
	{
		OFFSET -17.1583 93.1646 452.98
		CHANNELS 6 Xposition Yposition Zposition Zrotation Xrotation Yrotation 
		JOINT Spine
		{
			OFFSET 15.7357 0.0 0.0
			CHANNELS 6 Xposition Yposition Zposition Zrotation Xrotation Yrotation 
			JOINT Chest
			{
				OFFSET 8.98455 -0.406207 0.0
				CHANNELS 6 Xposition Yposition Zposition Zrotation Xrotation Yrotation 
				JOINT Neck
				{
					OFFSET 16.3773 0.0 0.0
					CHANNELS 6 Xposition Yposition Zposition Zrotation Xrotation Yrotation 
					JOINT Head
					{
						OFFSET 6.45672 0.0 0.0
						CHANNELS 6 Xposition Yposition Zposition Zrotation Xrotation Yrotation 
						End Site
						{
							OFFSET 0.0 0.0 0.0
						}
					}
				}
				JOINT Shoulder_L
				{
					OFFSET 12.9942 -0.242716 4.98039
					CHANNELS 6 Xposition Yposition Zposition Zrotation Xrotation Yrotation 
					JOINT UpperArm_L
					{
						OFFSET 5.34809 0.0 0.0
						CHANNELS 6 Xposition Yposition Zposition Zrotation Xrotation Yrotation 
						JOINT LowerArm_L
						{
							OFFSET 24.3286 1.87007e-05 0.0
							CHANNELS 6 Xposition Yposition Zposition Zrotation Xrotation Yrotation 
							JOINT Hand_L
							{
								OFFSET 22.2916 0.0 0.0
								CHANNELS 6 Xposition Yposition Zposition Zrotation Xrotation Yrotation 
								End Site
								{
									OFFSET 0.0 0.0 0.0
								}
							}
						}
					}
				}
				JOINT Shoulder_R
				{
					OFFSET 12.9945 -0.242716 -4.98039
					CHANNELS 6 Xposition Yposition Zposition Zrotation Xrotation Yrotation 
					JOINT UpperArm_R
					{
						OFFSET -5.34813 0.0 0.0
						CHANNELS 6 Xposition Yposition Zposition Zrotation Xrotation Yrotation 
						JOINT LowerArm_R
						{
							OFFSET -24.3289 0.000322201 0.0
							CHANNELS 6 Xposition Yposition Zposition Zrotation Xrotation Yrotation 
							JOINT Hand_R
							{
								OFFSET -22.2915 -0.000108084 0.0
								CHANNELS 6 Xposition Yposition Zposition Zrotation Xrotation Yrotation 
								End Site
								{
									OFFSET 0.0 0.0 0.0
								}
							}
						}
					}
				}
			}
		}
		JOINT UpperLeg_L
		{
			OFFSET -2.19248 -6.46944 0.0
			CHANNELS 6 Xposition Yposition Zposition Zrotation Xrotation Yrotation 
			JOINT LowerLeg_L
			{
				OFFSET 39.0811 0.0 -1.23785e-05
				CHANNELS 6 Xposition Yposition Zposition Zrotation Xrotation Yrotation 
				JOINT Foot_L
				{
					OFFSET 40.9854 0.0 -1.26872e-05
					CHANNELS 6 Xposition Yposition Zposition Zrotation Xrotation Yrotation 
					JOINT Toes_L
					{
						OFFSET 11.7543 0.0 0.0
						CHANNELS 6 Xposition Yposition Zposition Zrotation Xrotation Yrotation 
						End Site
						{
							OFFSET 0.0 0.0 0.0
						}
					}
				}
			}
		}
		JOINT UpperLeg_R
		{
			OFFSET -2.19251 6.46944 0.0
			CHANNELS 6 Xposition Yposition Zposition Zrotation Xrotation Yrotation 
			JOINT LowerLeg_R
			{
				OFFSET -39.0811 -0.00228153 -0.0401928
				CHANNELS 6 Xposition Yposition Zposition Zrotation Xrotation Yrotation 
				JOINT Foot_R
				{
					OFFSET -40.9854 0.0 0.0
					CHANNELS 6 Xposition Yposition Zposition Zrotation Xrotation Yrotation 
					JOINT Toes_R
					{
						OFFSET -11.7543 0.0 0.0
						CHANNELS 6 Xposition Yposition Zposition Zrotation Xrotation Yrotation 
						End Site
						{
							OFFSET 0.0 0.0 0.0
						}
					}
				}
			}
		}
	}
}
MOTION
Frames:	4
Frame Time:	0.0333333
0.000000 0.000000 0.000000 0.000000 0.000000 -0.000000 126.330000 88.418300 222.523000 -86.851100 61.493700 177.603000 15.735700 0.000005 -0.000001 109.119000 85.906100 -108.357000 8.984550 -0.406207 -0.000000 -0.046272 2.629170 1.524300 16.377300 -0.000001 -0.000001 5.323110 12.865800 -1.356730 6.456720 -0.000001 -0.000000 -0.948426 17.295400 -0.924600 12.994200 -0.242716 4.980390 -92.986100 7.073790 -67.043000 5.348090 -0.000007 -0.000001 -69.750000 -12.560100 10.085300 24.328600 0.000019 0.000005 1.757680 8.465320 -11.778500 22.291600 -0.000001 0.000005 51.194900 4.292470 19.905700 12.994500 -0.242716 -4.980390 88.908500 3.439300 -72.381000 -5.348130 -0.000001 -0.000004 -71.466600 19.168900 -10.578900 -24.328900 0.000322 -0.000009 8.370320 12.089500 -35.093800 -22.291500 -0.000108 -0.000004 40.794400 5.512060 -7.027560 -2.192480 -6.469440 -0.000000 165.760000 -3.373650 -22.144500 39.081100 -0.000007 -0.000012 0.375336 -0.674331 29.101400 40.985400 -0.000006 -0.000013 16.672100 1.512050 -62.032200 11.754300 -0.000000 0.000003 -0.000893 0.181507 -9.214100 -2.192510 6.469440 -0.000001 170.092000 12.245000 173.419000 -39.081100 -0.002282 -0.040193 0.679997 -0.415741 58.439600 -40.985400 0.000008 0.000006 -24.989100 7.239740 -21.757200 -11.754300 -0.000006 -0.000006 -0.000462 0.175113 -9.470420
0.000000 0.000000 0.000000 0.000000 0.000000 -0.000000 129.645000 88.704600 220.435000 -86.468300 58.550300 178.734000 15.735700 0.000005 -0.000001 100.075000 85.781700 -98.923800 8.984550 -0.406207 -0.000000 0.527700 1.402750 2.295070 16.377300 -0.000001 -0.000001 5.474680 12.851900 -2.358110 6.456720 -0.000001 -0.000000 -0.684594 17.652100 -2.051940 12.994200 -0.242716 4.980390 -93.205300 7.611790 -67.082600 5.348090 -0.000007 -0.000001 -72.561600 -7.808790 7.704720 24.328600 0.000019 0.000005 2.634740 8.921750 -16.520600 22.291600 -0.000001 0.000005 49.879900 4.383970 18.477200 12.994500 -0.242716 -4.980390 88.841300 3.634560 -72.304200 -5.348130 -0.000001 -0.000004 -70.251800 20.030400 -7.988220 -24.328900 0.000322 -0.000009 7.878830 14.362100 -29.165100 -22.291500 -0.000108 -0.000004 40.449900 5.512830 -7.058750 -2.192480 -6.469440 -0.000000 166.061000 -3.366770 -17.586900 39.081100 -0.000007 -0.000012 0.404206 -0.714607 29.495000 40.985400 -0.000006 -0.000013 17.355800 3.312820 -65.062200 11.754300 -0.000000 0.000003 -0.000649 0.177910 -9.360240 -2.192510 6.469440 -0.000001 170.173000 10.610700 169.312000 -39.081100 -0.002282 -0.040193 0.593180 -0.275132 65.000600 -40.985400 0.000008 0.000006 -20.915300 7.901930 -28.526500 -11.754300 -0.000006 -0.000006 -0.000828 0.180600 -9.247470
0.000000 0.000000 0.000000 0.000000 0.000000 -0.000000 132.784000 89.269900 218.634000 -85.439900 54.340100 178.813000 15.735700 0.000005 -0.000001 91.377900 85.715600 -89.737000 8.984550 -0.406207 -0.000000 0.800887 0.106288 3.278590 16.377300 -0.000001 -0.000001 5.430260 12.385100 -2.967640 6.456720 -0.000001 -0.000000 -0.364253 17.451500 -2.586680 12.994200 -0.242716 4.980390 -93.269200 7.947930 -67.554500 5.348090 -0.000007 -0.000001 -74.124700 -1.644560 5.479410 24.328600 0.000019 0.000005 4.909720 11.652700 -23.026200 22.291600 -0.000001 0.000005 50.340100 4.424260 17.834800 12.994500 -0.242716 -4.980390 88.769600 3.768830 -71.904500 -5.348130 -0.000001 -0.000004 -69.697600 18.651700 -4.825460 -24.328900 0.000322 -0.000009 6.737810 16.341400 -22.780900 -22.291500 -0.000108 -0.000004 39.242600 5.507120 -6.821340 -2.192480 -6.469440 -0.000000 167.209000 -2.485730 -12.627400 39.081100 -0.000007 -0.000012 0.355656 -0.666722 28.078000 40.985400 -0.000006 -0.000013 17.913500 5.829900 -67.444600 11.754300 -0.000000 0.000003 -0.000506 0.175741 -9.448380 -2.192510 6.469440 -0.000001 171.319000 9.768710 165.378000 -39.081100 -0.002282 -0.040193 0.478032 -0.189963 68.198700 -40.985400 0.000008 0.000006 -16.063300 4.534870 -36.485700 -11.754300 -0.000006 -0.000006 -0.000966 0.182597 -9.166310
0.000000 0.000000 0.000000 0.000000 0.000000 -0.000000 135.776000 90.022300 217.043000 -84.280800 49.315000 178.528000 15.735700 0.000005 -0.000001 82.425800 85.603000 -80.284700 8.984550 -0.406207 -0.000000 0.979159 -1.285410 4.289950 16.377300 -0.000001 -0.000001 5.151490 11.762300 -3.143970 6.456720 -0.000001 -0.000000 -0.301865 16.865500 -2.804860 12.994200 -0.242716 4.980390 -93.128600 7.842790 -68.171300 5.348090 -0.000007 -0.000001 -74.599300 2.810280 3.279640 24.328600 0.000019 0.000005 9.354650 15.920700 -30.975000 22.291600 -0.000001 0.000005 51.370000 4.447210 17.464300 12.994500 -0.242716 -4.980390 88.911000 3.278570 -71.614100 -5.348130 -0.000001 -0.000004 -70.218400 14.828300 -1.211160 -24.328900 0.000322 -0.000009 4.981400 17.208100 -16.419500 -22.291500 -0.000108 -0.000004 37.781800 5.493680 -6.278190 -2.192480 -6.469440 -0.000000 168.887000 0.057991 -7.422040 39.081100 -0.000007 -0.000012 0.264682 -0.562538 25.198100 40.985400 -0.000006 -0.000013 18.027500 8.126300 -68.916800 11.754300 -0.000000 0.000003 -0.000352 0.173354 -9.545350 -2.192510 6.469440 -0.000001 173.098000 8.636810 162.051000 -39.081100 -0.002282 -0.040193 0.336350 -0.133446 68.175100 -40.985400 0.000008 0.000006 -11.829800 -1.272390 -44.775100 -11.754300 -0.000006 -0.000006 -0.001594 0.191186 -8.817220
